<?xml version="1.0" encoding="utf-8"?>
<svg xmlns="http://www.w3.org/2000/svg" version="1.1" viewBox="0 0 1400 440">
	<title>The titlepage for the Standard Ebooks edition of The Religion of Nature Delineated, by William Wollaston</title>
	<g aria-label="THE RELIGION OF">
		<path d="M249.98,68.25l0.00-15.44l54.27,0.00l0.00,15.44l-18.34,0.00l0.00,61.75l-17.59,0.00l0.00-61.75l-18.34,0.00z"/>
		<path d="M333.20,99.03l0.00,30.97l-17.59,0.00l0.00-77.19l17.59,0.00l0.00,30.78l24.89,0.00l0.00-30.78l17.59,0.00l0.00,77.19l-17.59,0.00l0.00-30.97l-24.89,0.00z"/>
		<path d="M436.08,52.81l0.00,15.44l-26.57,0.00l0.00,15.35l25.45,0.00l0.00,15.44l-25.45,0.00l0.00,15.53l26.57,0.00l0.00,15.44l-44.16,0.00l0.00-77.19l44.16,0.00z"/>
		<path d="M481.73,52.81l27.60,0.00c14.32,0.00,25.17,7.77,25.17,22.92c0.00,11.60-6.36,19.37-15.81,22.36l26.57,31.91l-22.36,0.00l-23.58-30.50l0.00,30.50l-17.59,0.00l0.00-77.19z  M499.32,87.05l2.06,0.00c6.64,0.00,14.60-0.47,14.60-10.11s-7.95-10.11-14.60-10.11l-2.06,0.00l0.00,20.21z"/>
		<path d="M597.88,52.81l0.00,15.44l-26.57,0.00l0.00,15.35l25.45,0.00l0.00,15.44l-25.45,0.00l0.00,15.53l26.57,0.00l0.00,15.44l-44.16,0.00l0.00-77.19l44.16,0.00z"/>
		<path d="M630.58,52.81l0.00,61.75l26.57,0.00l0.00,15.44l-44.16,0.00l0.00-77.19l17.59,0.00z"/>
		<path d="M688.44,52.81l0.00,77.19l-17.59,0.00l0.00-77.19l17.59,0.00z"/>
		<path d="M774.47,86.77l0.00,16.75c-4.21,19.56-20.49,27.88-35.65,27.88c-20.77,0.00-37.61-17.87-37.61-39.95c0.00-22.18,15.91-40.05,37.61-40.05c13.57,0.00,23.02,5.05,29.75,13.19l-11.51,12.63c-4.49-7.20-10.39-9.92-17.22-9.92c-10.85,0.00-19.65,10.76-19.65,24.14c0.00,13.10,8.80,23.77,19.65,23.77c8.42,0.00,16.75-5.43,16.75-14.88l-17.78,0.00l0.00-13.57l35.65,0.00z"/>
		<path d="M804.83,52.81l0.00,77.19l-17.59,0.00l0.00-77.19l17.59,0.00z"/>
		<path d="M817.60,91.36c0.00-22.55,17.68-39.95,38.92-39.95c21.43,0.00,38.83,17.40,38.83,39.95s-16.65,40.05-38.83,40.05c-22.83,0.00-38.92-17.50-38.92-40.05z  M836.59,91.36c0.00,11.51,5.52,23.02,19.93,23.02c14.04,0.00,19.84-11.51,19.84-23.02s-6.18-23.02-19.84-23.02c-13.57,0.00-19.93,11.51-19.93,23.02z"/>
		<path d="M925.71,82.09l0.00,47.91l-17.59,0.00l0.00-77.19l17.59,0.00l30.69,47.91l0.19,0.00l0.00-47.91l17.59,0.00l0.00,77.19l-17.59,0.00l-30.69-47.91l-0.19,0.00z"/>
		<path d="M1017.49,91.36c0.00-22.55,17.68-39.95,38.92-39.95c21.43,0.00,38.83,17.40,38.83,39.95s-16.65,40.05-38.83,40.05c-22.83,0.00-38.92-17.50-38.92-40.05z  M1036.48,91.36c0.00,11.51,5.52,23.02,19.93,23.02c14.04,0.00,19.84-11.51,19.84-23.02s-6.18-23.02-19.84-23.02c-13.57,0.00-19.93,11.51-19.93,23.02z"/>
		<path d="M1152.64,52.81l0.00,15.44l-27.04,0.00l0.00,15.35l24.98,0.00l0.00,15.44l-24.98,0.00l0.00,30.97l-17.59,0.00l0.00-77.19l44.63,0.00z"/>
	</g>
	<g aria-label="NATURE DELINEATED">
		<path d="M181.50,182.09l0.00,47.91l-17.59,0.00l0.00-77.19l17.59,0.00l30.69,47.91l0.19,0.00l0.00-47.91l17.59,0.00l0.00,77.19l-17.59,0.00l-30.69-47.91l-0.19,0.00z"/>
		<path d="M285.40,152.81l31.16,77.19l-18.90,0.00l-5.71-15.44l-29.38,0.00l-5.71,15.44l-18.90,0.00l31.16-77.19l16.28,0.00z  M285.96,199.12l-8.61-22.46l-0.19,0.00l-8.61,22.46l17.40,0.00z"/>
		<path d="M315.19,168.25l0.00-15.44l54.27,0.00l0.00,15.44l-18.34,0.00l0.00,61.75l-17.59,0.00l0.00-61.75l-18.34,0.00z"/>
		<path d="M440.15,152.81l0.00,49.78c0.00,19.09-10.48,28.82-30.13,28.82s-30.13-9.73-30.13-28.82l0.00-49.78l17.59,0.00l0.00,44.63c0.00,12.91,3.93,16.65,12.54,16.65s12.54-3.74,12.54-16.65l0.00-44.63l17.59,0.00z"/>
		<path d="M455.44,152.81l27.60,0.00c14.32,0.00,25.17,7.77,25.17,22.92c0.00,11.60-6.36,19.37-15.81,22.36l26.57,31.91l-22.36,0.00l-23.58-30.50l0.00,30.50l-17.59,0.00l0.00-77.19z  M473.03,187.05l2.06,0.00c6.64,0.00,14.60-0.47,14.60-10.11s-7.95-10.11-14.60-10.11l-2.06,0.00l0.00,20.21z"/>
		<path d="M571.60,152.81l0.00,15.44l-26.57,0.00l0.00,15.35l25.45,0.00l0.00,15.44l-25.45,0.00l0.00,15.53l26.57,0.00l0.00,15.44l-44.16,0.00l0.00-77.19l44.16,0.00z"/>
		<path d="M617.25,152.81l22.36,0.00c21.15,0.00,38.92,16.09,38.92,38.55c0.00,22.55-17.68,38.64-38.92,38.64l-22.36,0.00l0.00-77.19z  M634.84,214.28l2.71,0.00c13.01,0.00,21.89-9.92,21.99-22.83c0.00-12.91-8.89-22.92-21.99-22.92l-2.71,0.00l0.00,45.75z"/>
		<path d="M735.46,152.81l0.00,15.44l-26.57,0.00l0.00,15.35l25.45,0.00l0.00,15.44l-25.45,0.00l0.00,15.53l26.57,0.00l0.00,15.44l-44.16,0.00l0.00-77.19l44.16,0.00z"/>
		<path d="M768.16,152.81l0.00,61.75l26.57,0.00l0.00,15.44l-44.16,0.00l0.00-77.19l17.59,0.00z"/>
		<path d="M826.02,152.81l0.00,77.19l-17.59,0.00l0.00-77.19l17.59,0.00z"/>
		<path d="M859.84,182.09l0.00,47.91l-17.59,0.00l0.00-77.19l17.59,0.00l30.69,47.91l0.19,0.00l0.00-47.91l17.59,0.00l0.00,77.19l-17.59,0.00l-30.69-47.91l-0.19,0.00z"/>
		<path d="M968.70,152.81l0.00,15.44l-26.57,0.00l0.00,15.35l25.45,0.00l0.00,15.44l-25.45,0.00l0.00,15.53l26.57,0.00l0.00,15.44l-44.16,0.00l0.00-77.19l44.16,0.00z"/>
		<path d="M1023.57,152.81l31.16,77.19l-18.90,0.00l-5.71-15.44l-29.38,0.00l-5.71,15.44l-18.90,0.00l31.16-77.19l16.28,0.00z  M1024.13,199.12l-8.61-22.46l-0.19,0.00l-8.61,22.46l17.40,0.00z"/>
		<path d="M1053.37,168.25l0.00-15.44l54.27,0.00l0.00,15.44l-18.34,0.00l0.00,61.75l-17.59,0.00l0.00-61.75l-18.34,0.00z"/>
		<path d="M1163.16,152.81l0.00,15.44l-26.57,0.00l0.00,15.35l25.45,0.00l0.00,15.44l-25.45,0.00l0.00,15.53l26.57,0.00l0.00,15.44l-44.16,0.00l0.00-77.19l44.16,0.00z"/>
		<path d="M1178.27,152.81l22.36,0.00c21.15,0.00,38.92,16.09,38.92,38.55c0.00,22.55-17.68,38.64-38.92,38.64l-22.36,0.00l0.00-77.19z  M1195.86,214.28l2.71,0.00c13.01,0.00,21.89-9.92,21.99-22.83c0.00-12.91-8.89-22.92-21.99-22.92l-2.71,0.00l0.00,45.75z"/>
	</g>
	<g aria-label="WILLIAM WOLLASTON">
		<path d="M303.33,390.00l-9.26-32.49l-9.26,32.49l-14.67,0.00l-16.49-57.89l14.67,0.00l9.89,39.72l0.35,0.00l10.53-39.72l9.96,0.00l10.53,39.72l0.35,0.00l9.89-39.72l14.60,0.00l-16.49,57.89l-14.60,0.00z"/>
		<path d="M355.77,332.11l0.00,57.89l-13.19,0.00l0.00-57.89l13.19,0.00z"/>
		<path d="M382.39,332.11l0.00,46.32l19.93,0.00l0.00,11.58l-33.12,0.00l0.00-57.89l13.19,0.00z"/>
		<path d="M427.04,332.11l0.00,46.32l19.93,0.00l0.00,11.58l-33.12,0.00l0.00-57.89l13.19,0.00z"/>
		<path d="M471.68,332.11l0.00,57.89l-13.19,0.00l0.00-57.89l13.19,0.00z"/>
		<path d="M514.51,332.11l23.37,57.89l-14.18,0.00l-4.28-11.58l-22.04,0.00l-4.28,11.58l-14.18,0.00l23.37-57.89l12.21,0.00z  M514.93,366.84l-6.46-16.84l-0.14,0.00l-6.46,16.84l13.05,0.00z"/>
		<path d="M592.98,390.00l-2.74-34.32l-0.35,0.00l-11.86,33.96l-7.86,0.00l-11.86-33.96l-0.35,0.00l-2.74,34.32l-13.19,0.00l5.19-57.89l14.04,0.00l12.84,33.40l12.84-33.40l14.04,0.00l5.19,57.89l-13.19,0.00z"/>
		<path d="M679.12,390.00l-9.26-32.49l-9.26,32.49l-14.67,0.00l-16.49-57.89l14.67,0.00l9.89,39.72l0.35,0.00l10.53-39.72l9.96,0.00l10.53,39.72l0.35,0.00l9.89-39.72l14.60,0.00l-16.49,57.89l-14.60,0.00z"/>
		<path d="M713.53,361.02c0.00-16.91,13.26-29.96,29.19-29.96c16.07,0.00,29.12,13.05,29.12,29.96s-12.49,30.04-29.12,30.04c-17.12,0.00-29.19-13.12-29.19-30.04z  M727.77,361.02c0.00,8.63,4.14,17.26,14.95,17.26c10.53,0.00,14.88-8.63,14.88-17.26s-4.63-17.26-14.88-17.26c-10.18,0.00-14.95,8.63-14.95,17.26z"/>
		<path d="M795.86,332.11l0.00,46.32l19.93,0.00l0.00,11.58l-33.12,0.00l0.00-57.89l13.19,0.00z"/>
		<path d="M840.51,332.11l0.00,46.32l19.93,0.00l0.00,11.58l-33.12,0.00l0.00-57.89l13.19,0.00z"/>
		<path d="M902.42,332.11l23.37,57.89l-14.18,0.00l-4.28-11.58l-22.04,0.00l-4.28,11.58l-14.18,0.00l23.37-57.89l12.21,0.00z  M902.84,366.84l-6.46-16.84l-0.14,0.00l-6.46,16.84l13.05,0.00z"/>
		<path d="M952.96,331.05c10.53,0.00,17.96,5.47,17.96,5.47l-5.33,10.53s-5.75-4.00-11.72-4.00c-4.49,0.00-6.88,2.04-6.88,5.19c0.00,3.23,5.47,5.54,12.07,8.35c6.46,2.74,13.54,8.21,13.54,15.79c0.00,13.82-10.53,18.67-21.82,18.67c-13.54,0.00-21.75-7.65-21.75-7.65l6.60-11.09s7.72,6.53,14.18,6.53c2.88,0.00,8.35-0.28,8.35-5.68c0.00-4.21-6.18-6.11-13.05-9.54c-6.95-3.44-11.02-8.84-11.02-14.88c0.00-10.81,9.54-17.68,18.88-17.68z"/>
		<path d="M976.77,343.68l0.00-11.58l40.70,0.00l0.00,11.58l-13.75,0.00l0.00,46.32l-13.19,0.00l0.00-46.32l-13.75,0.00z"/>
		<path d="M1022.40,361.02c0.00-16.91,13.26-29.96,29.19-29.96c16.07,0.00,29.12,13.05,29.12,29.96s-12.49,30.04-29.12,30.04c-17.12,0.00-29.19-13.12-29.19-30.04z  M1036.65,361.02c0.00,8.63,4.14,17.26,14.95,17.26c10.53,0.00,14.88-8.63,14.88-17.26s-4.63-17.26-14.88-17.26c-10.18,0.00-14.95,8.63-14.95,17.26z"/>
		<path d="M1104.74,354.07l0.00,35.93l-13.19,0.00l0.00-57.89l13.19,0.00l23.02,35.93l0.14,0.00l0.00-35.93l13.19,0.00l0.00,57.89l-13.19,0.00l-23.02-35.93l-0.14,0.00z"/>
	</g>
</svg>
